<mxfile host="app.diagrams.net" modified="2022-01-24T17:17:37.057Z" agent="5.0 (Macintosh; Intel Mac OS X 10_15_7) AppleWebKit/605.1.15 (KHTML, like Gecko) Version/15.2 Safari/605.1.15" etag="f59ZbVV_3lVPD-7UQCss" version="16.4.5" type="github">
  <diagram id="-b5wHSrjcIwHEkOSufyf" name="Page-1">
    <mxGraphModel dx="1186" dy="-371" grid="1" gridSize="10" guides="1" tooltips="1" connect="1" arrows="1" fold="1" page="1" pageScale="1" pageWidth="827" pageHeight="1169" math="0" shadow="0">
      <root>
        <mxCell id="0" />
        <mxCell id="1" parent="0" />
        <mxCell id="2g3wD72pxiSLKNJIeq4h-1" value="" style="group" vertex="1" connectable="0" parent="1">
          <mxGeometry x="359" y="1541" width="468" height="460" as="geometry" />
        </mxCell>
        <mxCell id="2g3wD72pxiSLKNJIeq4h-2" value="" style="rounded=0;whiteSpace=wrap;html=1;fillColor=#d0cee2;strokeColor=#56517e;" vertex="1" parent="2g3wD72pxiSLKNJIeq4h-1">
          <mxGeometry x="-115" y="-56" width="160" height="370" as="geometry" />
        </mxCell>
        <mxCell id="2g3wD72pxiSLKNJIeq4h-3" value="" style="rounded=0;whiteSpace=wrap;html=1;labelBackgroundColor=none;fillColor=#fff2cc;strokeColor=#d6b656;" vertex="1" parent="2g3wD72pxiSLKNJIeq4h-1">
          <mxGeometry x="-225" y="-32.75" width="110" height="294.5" as="geometry" />
        </mxCell>
        <mxCell id="2g3wD72pxiSLKNJIeq4h-4" value="" style="rounded=0;whiteSpace=wrap;html=1;labelBackgroundColor=none;fillColor=#b1ddf0;strokeColor=#10739e;" vertex="1" parent="2g3wD72pxiSLKNJIeq4h-1">
          <mxGeometry x="45" y="-131" width="430" height="511" as="geometry" />
        </mxCell>
        <mxCell id="2g3wD72pxiSLKNJIeq4h-5" style="edgeStyle=orthogonalEdgeStyle;rounded=0;orthogonalLoop=1;jettySize=auto;html=1;dashed=1;exitX=0;exitY=0.75;exitDx=0;exitDy=0;entryX=0;entryY=0.5;entryDx=0;entryDy=0;" edge="1" parent="2g3wD72pxiSLKNJIeq4h-1" source="2g3wD72pxiSLKNJIeq4h-7" target="2g3wD72pxiSLKNJIeq4h-6">
          <mxGeometry relative="1" as="geometry">
            <mxPoint x="108" y="279" as="targetPoint" />
            <Array as="points">
              <mxPoint x="174" y="43" />
              <mxPoint x="108" y="43" />
              <mxPoint x="108" y="199" />
            </Array>
          </mxGeometry>
        </mxCell>
        <mxCell id="2g3wD72pxiSLKNJIeq4h-6" value="CEPOSTO_DB" style="aspect=fixed;perimeter=ellipsePerimeter;html=1;align=center;shadow=0;dashed=0;image;image=img/lib/ibm/data/enterprise_data.svg;labelBackgroundColor=none;strokeColor=#666666;strokeWidth=3;fillColor=#C2952D;gradientColor=none;fontSize=12;fontColor=#030303;" vertex="1" parent="2g3wD72pxiSLKNJIeq4h-1">
          <mxGeometry x="131" y="169" width="60" height="60" as="geometry" />
        </mxCell>
        <mxCell id="2g3wD72pxiSLKNJIeq4h-7" value="User_Service" style="aspect=fixed;perimeter=ellipsePerimeter;html=1;align=center;shadow=0;dashed=0;image;image=img/lib/ibm/infrastructure/edge_services.svg;labelBackgroundColor=none;strokeColor=#666666;strokeWidth=3;fillColor=#C2952D;gradientColor=none;fontSize=12;fontColor=#030303;" vertex="1" parent="2g3wD72pxiSLKNJIeq4h-1">
          <mxGeometry x="171" y="-71" width="60" height="60" as="geometry" />
        </mxCell>
        <mxCell id="2g3wD72pxiSLKNJIeq4h-8" value="Prenotation_Service" style="aspect=fixed;perimeter=ellipsePerimeter;html=1;align=center;shadow=0;dashed=0;image;image=img/lib/ibm/infrastructure/edge_services.svg;labelBackgroundColor=none;strokeColor=#666666;strokeWidth=3;fillColor=#C2952D;gradientColor=none;fontSize=12;fontColor=#030303;" vertex="1" parent="2g3wD72pxiSLKNJIeq4h-1">
          <mxGeometry x="331" width="60" height="60" as="geometry" />
        </mxCell>
        <mxCell id="2g3wD72pxiSLKNJIeq4h-9" style="edgeStyle=orthogonalEdgeStyle;rounded=0;orthogonalLoop=1;jettySize=auto;html=1;dashed=1;entryX=0.5;entryY=1;entryDx=0;entryDy=0;" edge="1" parent="2g3wD72pxiSLKNJIeq4h-1" source="2g3wD72pxiSLKNJIeq4h-8" target="2g3wD72pxiSLKNJIeq4h-6">
          <mxGeometry relative="1" as="geometry">
            <mxPoint x="138" y="309" as="targetPoint" />
            <Array as="points">
              <mxPoint x="355" y="309" />
              <mxPoint x="161" y="309" />
            </Array>
          </mxGeometry>
        </mxCell>
        <mxCell id="2g3wD72pxiSLKNJIeq4h-10" value="Merchant_Service" style="aspect=fixed;perimeter=ellipsePerimeter;html=1;align=center;shadow=0;dashed=0;image;image=img/lib/ibm/infrastructure/edge_services.svg;labelBackgroundColor=none;strokeColor=#666666;strokeWidth=3;fillColor=#C2952D;gradientColor=none;fontSize=12;fontColor=#030303;" vertex="1" parent="2g3wD72pxiSLKNJIeq4h-1">
          <mxGeometry x="221" y="49" width="60" height="60" as="geometry" />
        </mxCell>
        <mxCell id="2g3wD72pxiSLKNJIeq4h-11" style="edgeStyle=orthogonalEdgeStyle;rounded=0;orthogonalLoop=1;jettySize=auto;html=1;dashed=1;entryX=1;entryY=0.5;entryDx=0;entryDy=0;" edge="1" parent="2g3wD72pxiSLKNJIeq4h-1" source="2g3wD72pxiSLKNJIeq4h-10" target="2g3wD72pxiSLKNJIeq4h-6">
          <mxGeometry relative="1" as="geometry">
            <mxPoint x="138" y="309" as="targetPoint" />
            <Array as="points">
              <mxPoint x="251" y="199" />
            </Array>
          </mxGeometry>
        </mxCell>
        <mxCell id="2g3wD72pxiSLKNJIeq4h-12" style="edgeStyle=orthogonalEdgeStyle;rounded=0;orthogonalLoop=1;jettySize=auto;html=1;fontColor=#030303;startArrow=classic;startFill=1;strokeColor=#000000;" edge="1" parent="1" source="2g3wD72pxiSLKNJIeq4h-19">
          <mxGeometry relative="1" as="geometry">
            <mxPoint x="690" y="1571" as="targetPoint" />
            <Array as="points">
              <mxPoint x="670" y="1660" />
              <mxPoint x="670" y="1571" />
            </Array>
          </mxGeometry>
        </mxCell>
        <mxCell id="2g3wD72pxiSLKNJIeq4h-13" style="edgeStyle=orthogonalEdgeStyle;rounded=0;orthogonalLoop=1;jettySize=auto;html=1;entryX=0;entryY=0.5;entryDx=0;entryDy=0;fontColor=#030303;strokeColor=#000000;" edge="1" parent="1" source="2g3wD72pxiSLKNJIeq4h-19" target="2g3wD72pxiSLKNJIeq4h-10">
          <mxGeometry relative="1" as="geometry" />
        </mxCell>
        <mxCell id="2g3wD72pxiSLKNJIeq4h-14" style="edgeStyle=orthogonalEdgeStyle;rounded=0;orthogonalLoop=1;jettySize=auto;html=1;entryX=0;entryY=0.5;entryDx=0;entryDy=0;fontColor=#030303;strokeColor=#000000;" edge="1" parent="1" source="2g3wD72pxiSLKNJIeq4h-19" target="2g3wD72pxiSLKNJIeq4h-7">
          <mxGeometry relative="1" as="geometry" />
        </mxCell>
        <mxCell id="2g3wD72pxiSLKNJIeq4h-15" value="" style="edgeStyle=orthogonalEdgeStyle;rounded=0;orthogonalLoop=1;jettySize=auto;html=1;endArrow=none;fontColor=#030303;strokeColor=#000000;" edge="1" parent="1" source="2g3wD72pxiSLKNJIeq4h-21" target="2g3wD72pxiSLKNJIeq4h-19">
          <mxGeometry relative="1" as="geometry">
            <mxPoint x="354" y="1651" as="targetPoint" />
            <mxPoint x="154" y="1711" as="sourcePoint" />
            <Array as="points">
              <mxPoint x="229" y="1711" />
              <mxPoint x="229" y="1651" />
            </Array>
          </mxGeometry>
        </mxCell>
        <mxCell id="2g3wD72pxiSLKNJIeq4h-16" style="edgeStyle=orthogonalEdgeStyle;rounded=0;orthogonalLoop=1;jettySize=auto;html=1;entryX=1.05;entryY=0.017;entryDx=0;entryDy=0;entryPerimeter=0;fontColor=#030303;strokeColor=#000000;" edge="1" parent="1" source="2g3wD72pxiSLKNJIeq4h-19" target="2g3wD72pxiSLKNJIeq4h-20">
          <mxGeometry relative="1" as="geometry">
            <Array as="points">
              <mxPoint x="279" y="1630" />
              <mxPoint x="279" y="1562" />
            </Array>
          </mxGeometry>
        </mxCell>
        <mxCell id="2g3wD72pxiSLKNJIeq4h-17" style="edgeStyle=orthogonalEdgeStyle;rounded=0;orthogonalLoop=1;jettySize=auto;html=1;entryX=1.033;entryY=0.967;entryDx=0;entryDy=0;entryPerimeter=0;fontColor=#030303;strokeColor=#000000;" edge="1" parent="1" source="2g3wD72pxiSLKNJIeq4h-19" target="2g3wD72pxiSLKNJIeq4h-21">
          <mxGeometry relative="1" as="geometry">
            <Array as="points">
              <mxPoint x="279" y="1670" />
              <mxPoint x="279" y="1739" />
            </Array>
          </mxGeometry>
        </mxCell>
        <mxCell id="2g3wD72pxiSLKNJIeq4h-18" style="edgeStyle=orthogonalEdgeStyle;rounded=0;orthogonalLoop=1;jettySize=auto;html=1;entryX=0;entryY=0.5;entryDx=0;entryDy=0;fontColor=#030303;strokeColor=#000000;" edge="1" parent="1" source="2g3wD72pxiSLKNJIeq4h-20" target="2g3wD72pxiSLKNJIeq4h-19">
          <mxGeometry relative="1" as="geometry">
            <Array as="points">
              <mxPoint x="229" y="1591" />
              <mxPoint x="229" y="1651" />
            </Array>
          </mxGeometry>
        </mxCell>
        <mxCell id="2g3wD72pxiSLKNJIeq4h-19" value="Auth_Service" style="aspect=fixed;perimeter=ellipsePerimeter;html=1;align=center;shadow=0;dashed=0;image;image=img/lib/ibm/infrastructure/edge_services.svg;labelBackgroundColor=none;strokeColor=#666666;strokeWidth=3;fillColor=#C2952D;gradientColor=none;fontSize=12;fontColor=#030303;" vertex="1" parent="1">
          <mxGeometry x="329" y="1621" width="60" height="60" as="geometry" />
        </mxCell>
        <mxCell id="2g3wD72pxiSLKNJIeq4h-20" value="Smartphone" style="aspect=fixed;perimeter=ellipsePerimeter;html=1;align=center;shadow=0;dashed=0;image;image=img/lib/ibm/users/device.svg;labelBackgroundColor=none;strokeColor=#666666;strokeWidth=3;fillColor=#C2952D;gradientColor=none;fontSize=12;fontColor=#030303;labelBorderColor=none;" vertex="1" parent="1">
          <mxGeometry x="159" y="1561" width="60" height="60" as="geometry" />
        </mxCell>
        <mxCell id="2g3wD72pxiSLKNJIeq4h-21" value="Web browser" style="aspect=fixed;perimeter=ellipsePerimeter;align=center;shadow=0;dashed=0;fontColor=#030303;fontSize=12;spacingTop=3;image;image=img/lib/ibm/users/browser.svg;labelBorderColor=none;labelBackgroundColor=none;" vertex="1" parent="1">
          <mxGeometry x="159" y="1681" width="60" height="60" as="geometry" />
        </mxCell>
        <mxCell id="2g3wD72pxiSLKNJIeq4h-22" value="Gateway" style="text;html=1;strokeColor=none;fillColor=none;align=center;verticalAlign=middle;whiteSpace=wrap;rounded=0;labelBackgroundColor=none;labelBorderColor=none;fontColor=#030303;" vertex="1" parent="1">
          <mxGeometry x="244" y="1495" width="60" height="30" as="geometry" />
        </mxCell>
        <mxCell id="2g3wD72pxiSLKNJIeq4h-23" value="Backend" style="text;html=1;strokeColor=none;fillColor=none;align=center;verticalAlign=middle;whiteSpace=wrap;rounded=0;labelBackgroundColor=none;labelBorderColor=none;fontColor=#030303;" vertex="1" parent="1">
          <mxGeometry x="404" y="1410" width="60" height="30" as="geometry" />
        </mxCell>
        <mxCell id="2g3wD72pxiSLKNJIeq4h-24" value="Clients" style="text;html=1;strokeColor=none;fillColor=none;align=center;verticalAlign=middle;whiteSpace=wrap;rounded=0;labelBackgroundColor=none;labelBorderColor=none;fontColor=#030303;" vertex="1" parent="1">
          <mxGeometry x="134" y="1518.25" width="60" height="30" as="geometry" />
        </mxCell>
        <mxCell id="2g3wD72pxiSLKNJIeq4h-25" style="edgeStyle=orthogonalEdgeStyle;rounded=0;orthogonalLoop=1;jettySize=auto;html=1;dashed=1;entryX=0;entryY=0.5;entryDx=0;entryDy=0;" edge="1" parent="1" source="2g3wD72pxiSLKNJIeq4h-19" target="2g3wD72pxiSLKNJIeq4h-6">
          <mxGeometry relative="1" as="geometry">
            <mxPoint x="467" y="1820" as="targetPoint" />
            <Array as="points">
              <mxPoint x="377" y="1740" />
            </Array>
          </mxGeometry>
        </mxCell>
      </root>
    </mxGraphModel>
  </diagram>
</mxfile>
